<?xml version="1.0" standalone="no"?>
<!DOCTYPE svg PUBLIC "-//W3C//DTD SVG 20010904//EN"
 "http://www.w3.org/TR/2001/REC-SVG-20010904/DTD/svg10.dtd">
<svg version="1.0" xmlns="http://www.w3.org/2000/svg"
 width="700.000000pt" height="700.000000pt" viewBox="0 0 700.000000 700.000000"
 preserveAspectRatio="xMidYMid meet">
<metadata>
Created by potrace 1.11, written by Peter Selinger 2001-2013
</metadata>
<g transform="translate(0.000000,700.000000) scale(0.100000,-0.100000)"
fill="#000000" stroke="none">
<path d="M5120 5975 c-162 -42 -860 -217 -1550 -391 -690 -173 -1270 -320
-1288 -325 l-33 -11 3 -1264 3 -1265 -120 -3 c-334 -10 -653 -145 -886 -376
-250 -247 -330 -539 -213 -778 34 -69 136 -177 208 -221 71 -42 170 -79 264
-97 97 -18 285 -18 397 2 454 78 866 411 950 767 12 53 15 235 15 1209 l0
1147 38 10 c130 35 1884 471 1892 471 7 0 10 -244 10 -724 l0 -723 -132 -6
c-329 -13 -645 -148 -871 -370 -128 -126 -216 -271 -253 -417 -22 -89 -15
-243 15 -322 62 -161 217 -289 423 -349 93 -27 319 -37 438 -20 384 57 756
301 914 601 90 170 83 53 86 1600 4 1636 2 1930 -7 1930 -5 0 -141 -34 -303
-75z"/>
</g>
</svg>
